<svg width="16" height="16" viewBox="0 0 16 16" fill="none" xmlns="http://www.w3.org/2000/svg">
<g clip-path="url(#clip0)">
<rect width="8" height="8" transform="matrix(-1 0 0 1 12 4)" fill="white"/>
<path d="M8 0C10.1217 0 12.1566 0.842855 13.6569 2.34315C15.1571 3.84344 16 5.87827 16 8C16 10.1217 15.1571 12.1566 13.6569 13.6569C12.1566 15.1571 10.1217 16 8 16C5.87827 16 3.84344 15.1571 2.34315 13.6569C0.842854 12.1566 0 10.1217 0 8C0 5.87827 0.842854 3.84344 2.34315 2.34315C3.84344 0.842855 5.87827 0 8 0V0ZM4.5 7.5C4.36739 7.5 4.24021 7.55268 4.14645 7.64645C4.05268 7.74021 4 7.86739 4 8C4 8.13261 4.05268 8.25979 4.14645 8.35355C4.24021 8.44732 4.36739 8.5 4.5 8.5H10.293L8.146 10.646C8.09951 10.6925 8.06264 10.7477 8.03748 10.8084C8.01232 10.8692 7.99937 10.9343 7.99937 11C7.99937 11.0657 8.01232 11.1308 8.03748 11.1916C8.06264 11.2523 8.09951 11.3075 8.146 11.354C8.19249 11.4005 8.24768 11.4374 8.30842 11.4625C8.36916 11.4877 8.43426 11.5006 8.5 11.5006C8.56574 11.5006 8.63084 11.4877 8.69158 11.4625C8.75232 11.4374 8.80751 11.4005 8.854 11.354L11.854 8.354C11.9006 8.30755 11.9375 8.25238 11.9627 8.19163C11.9879 8.13089 12.0009 8.06577 12.0009 8C12.0009 7.93423 11.9879 7.86911 11.9627 7.80837C11.9375 7.74762 11.9006 7.69245 11.854 7.646L8.854 4.646C8.76011 4.55211 8.63278 4.49937 8.5 4.49937C8.36722 4.49937 8.23989 4.55211 8.146 4.646C8.05211 4.73989 7.99937 4.86722 7.99937 5C7.99937 5.13278 8.05211 5.26011 8.146 5.354L10.293 7.5H4.5Z" fill="#393939"/>
</g>
<defs>
<clipPath id="clip0">
<rect width="16" height="16" fill="white" transform="matrix(-1 0 0 1 16 0)"/>
</clipPath>
</defs>
</svg>
